# xmcd
#
# Track frame offsets:
#	150
#	22452
#	44375
#	64220
#	83515
#	97718
#	121283
#	139443
#	150086
#	164176
#	182301
#	202094
#	211832
#
# Disc length: 3059 seconds
#
# Revision: 1
# Processed by: cddbd v1.5.2PL0 Copyright (c) Steve Scherf et al.
# Submitted via: audiograbber 1.83.01
#
DISCID=af0bf10d
DTITLE=Various Artist - Crucial Acoustic Blues
DYEAR=2007
DGENRE=Blues
TTITLE0=Buddy Guy and Junior Wells - High Heel Sneakers
TTITLE1=Lonnie Mack with Stevie Ray Vaughan - Oreo Cookie Blues
TTITLE2=Carey and Lurrie Bell - Stop Running 'Round
TTITLE3=Steady Rollin' Bob Margolin with Nappy Brown - Down In The Alley
TTITLE4=Saffire-The Uppity Blues Women - Sloppy Drunk
TTITLE5=Koko Taylor with Keb' Mo' - The Man Next Door
TTITLE6=John Jackson - Railroad Bill
TTITLE7=Johnny Winter - Evil On My Mind
TTITLE8=Cephas and Wiggins - Trouble In Mind
TTITLE9=Sonny Terry - So Tough With Me
TTITLE10=Kenny Neal and Billy Branch - Baby Bee
TTITLE11=Corey Harris - God Don't Ever Change
TTITLE12=Johnny Jones - The Dirty Dozens
EXTD=
EXTT0=
EXTT1=
EXTT2=
EXTT3=
EXTT4=
EXTT5=
EXTT6=
EXTT7=
EXTT8=
EXTT9=
EXTT10=
EXTT11=
EXTT12=
PLAYORDER=
